<svg xmlns="http://www.w3.org/2000/svg" width="412" height="900" viewBox="0 0 412 900">
  <defs>
    <linearGradient id="base" x1="0" y1="0" x2="0" y2="1">
      <stop offset="0" stop-color="#F4F7F2"/>
      <stop offset="1" stop-color="#E1EBE2"/>
    </linearGradient>
    <radialGradient id="blob1" cx="0.5" cy="0.5" r="0.5">
      <stop offset="0" stop-color="#CFE4D8" stop-opacity="0.55"/>
      <stop offset="1" stop-color="#CFE4D8" stop-opacity="0"/>
    </radialGradient>
    <radialGradient id="blob2" cx="0.5" cy="0.5" r="0.5">
      <stop offset="0" stop-color="#DCE8F2" stop-opacity="0.5"/>
      <stop offset="1" stop-color="#DCE8F2" stop-opacity="0"/>
    </radialGradient>
  </defs>

  <rect width="412" height="900" fill="url(#base)"/>
  <circle cx="70" cy="170" r="150" fill="url(#blob1)"/>
  <circle cx="360" cy="520" r="200" fill="url(#blob2)"/>
  <circle cx="150" cy="800" r="170" fill="url(#blob1)"/>

  <g font-family="'Segoe UI', Arial, Helvetica, sans-serif" fill="#4F7A63" font-weight="700" letter-spacing="2">
    <g opacity="0.05"><text x="206" y="470" text-anchor="middle" font-size="190" font-weight="800" letter-spacing="14" transform="rotate(-5 206 470)">PAZ</text></g>

    <g transform="rotate(-6 50 45)" opacity="0.80"><text x="50" y="45" font-size="15">paz</text></g>
    <g transform="rotate(4 150 40)" opacity="0.70"><text x="150" y="40" font-size="13">gozo</text></g>
    <g transform="rotate(-3 255 45)" opacity="0.76"><text x="255" y="45" font-size="16">fe</text></g>
    <g transform="rotate(7 345 40)" opacity="0.70"><text x="345" y="40" font-size="14">amor</text></g>
    <g transform="rotate(-8 80 85)" opacity="0.66"><text x="80" y="85" font-size="13">templanza</text></g>
    <g transform="rotate(5 235 82)" opacity="0.73"><text x="235" y="82" font-size="16">bienvenida</text></g>
    <g transform="rotate(-4 365 85)" opacity="0.66"><text x="365" y="85" font-size="13">paz</text></g>
    <g transform="rotate(6 45 125)" opacity="0.71"><text x="45" y="125" font-size="15">alegría</text></g>
    <g transform="rotate(-5 170 122)" opacity="0.70"><text x="170" y="122" font-size="14">hermandad</text></g>
    <g transform="rotate(3 300 125)" opacity="0.76"><text x="300" y="125" font-size="14">fe</text></g>
    <g transform="rotate(-7 385 120)" opacity="0.66"><text x="385" y="120" font-size="13">gozo</text></g>
    <g transform="rotate(4 60 165)" opacity="0.64"><text x="60" y="165" font-size="12">esperanza</text></g>
    <g transform="rotate(-4 190 160)" opacity="0.80"><text x="190" y="160" font-size="16">amor</text></g>
    <g transform="rotate(6 320 163)" opacity="0.70"><text x="320" y="163" font-size="13">paz</text></g>
    <g transform="rotate(-5 40 205)" opacity="0.66"><text x="40" y="205" font-size="13">gratitud</text></g>
    <g transform="rotate(3 160 200)" opacity="0.71"><text x="160" y="200" font-size="14">fe</text></g>
    <g transform="rotate(-6 280 205)" opacity="0.70"><text x="280" y="205" font-size="14">gozo</text></g>
    <g transform="rotate(5 380 200)" opacity="0.80"><text x="380" y="200" font-size="15">paz</text></g>
    <g transform="rotate(-4 70 245)" opacity="0.70"><text x="70" y="245" font-size="13">santidad</text></g>
    <g transform="rotate(6 200 242)" opacity="0.76"><text x="200" y="242" font-size="16">alegría</text></g>
    <g transform="rotate(-3 330 245)" opacity="0.66"><text x="330" y="245" font-size="13">amor</text></g>
    <g transform="rotate(4 50 285)" opacity="0.73"><text x="50" y="285" font-size="15">fe</text></g>
    <g transform="rotate(-5 170 282)" opacity="0.66"><text x="170" y="282" font-size="13">hermandad</text></g>
    <g transform="rotate(7 300 285)" opacity="0.70"><text x="300" y="285" font-size="14">esperanza</text></g>
    <g transform="rotate(-6 385 280)" opacity="0.76"><text x="385" y="280" font-size="14">paz</text></g>
    <g transform="rotate(5 80 325)" opacity="0.66"><text x="80" y="325" font-size="13">templanza</text></g>
    <g transform="rotate(-4 220 322)" opacity="0.80"><text x="220" y="322" font-size="16">amor</text></g>
    <g transform="rotate(3 360 325)" opacity="0.70"><text x="360" y="325" font-size="13">gozo</text></g>
    <g transform="rotate(-7 55 365)" opacity="0.71"><text x="55" y="365" font-size="15">bienvenida</text></g>
    <g transform="rotate(4 185 362)" opacity="0.66"><text x="185" y="362" font-size="13">fe</text></g>
    <g transform="rotate(-5 320 365)" opacity="0.76"><text x="320" y="365" font-size="14">paz</text></g>
    <g transform="rotate(6 380 360)" opacity="0.66"><text x="380" y="360" font-size="13">alegría</text></g>
    <g transform="rotate(-4 65 405)" opacity="0.70"><text x="65" y="405" font-size="14">santidad</text></g>
    <g transform="rotate(5 195 402)" opacity="0.71"><text x="195" y="402" font-size="15">gozo</text></g>
    <g transform="rotate(-3 330 405)" opacity="0.66"><text x="330" y="405" font-size="13">amor</text></g>
    <g transform="rotate(4 50 445)" opacity="0.80"><text x="50" y="445" font-size="16">fe</text></g>
    <g transform="rotate(-6 175 442)" opacity="0.70"><text x="175" y="442" font-size="14">gratitud</text></g>
    <g transform="rotate(5 300 445)" opacity="0.71"><text x="300" y="445" font-size="15">paz</text></g>
    <g transform="rotate(-5 385 440)" opacity="0.66"><text x="385" y="440" font-size="13">esperanza</text></g>
    <g transform="rotate(4 80 485)" opacity="0.73"><text x="80" y="485" font-size="15">hermandad</text></g>
    <g transform="rotate(-3 210 482)" opacity="0.66"><text x="210" y="482" font-size="13">amor</text></g>
    <g transform="rotate(6 350 485)" opacity="0.76"><text x="350" y="485" font-size="14">gozo</text></g>
    <g transform="rotate(-6 45 525)" opacity="0.70"><text x="45" y="525" font-size="13">templanza</text></g>
    <g transform="rotate(4 170 522)" opacity="0.80"><text x="170" y="522" font-size="16">paz</text></g>
    <g transform="rotate(-4 305 525)" opacity="0.71"><text x="305" y="525" font-size="15">fe</text></g>
    <g transform="rotate(5 385 520)" opacity="0.66"><text x="385" y="520" font-size="13">alegría</text></g>
    <g transform="rotate(-5 70 565)" opacity="0.76"><text x="70" y="565" font-size="15">bienvenida</text></g>
    <g transform="rotate(3 200 562)" opacity="0.70"><text x="200" y="562" font-size="13">gozo</text></g>
    <g transform="rotate(-6 340 565)" opacity="0.71"><text x="340" y="565" font-size="14">amor</text></g>
    <g transform="rotate(5 50 605)" opacity="0.66"><text x="50" y="605" font-size="13">esperanza</text></g>
    <g transform="rotate(-4 180 602)" opacity="0.80"><text x="180" y="602" font-size="16">fe</text></g>
    <g transform="rotate(4 320 605)" opacity="0.70"><text x="320" y="605" font-size="13">paz</text></g>
    <g transform="rotate(-7 385 600)" opacity="0.76"><text x="385" y="600" font-size="14">hermandad</text></g>
    <g transform="rotate(6 70 645)" opacity="0.71"><text x="70" y="645" font-size="15">alegría</text></g>
    <g transform="rotate(-5 205 642)" opacity="0.66"><text x="205" y="642" font-size="13">gratitud</text></g>
    <g transform="rotate(3 350 645)" opacity="0.80"><text x="350" y="645" font-size="14">paz</text></g>
    <g transform="rotate(-4 45 685)" opacity="0.70"><text x="45" y="685" font-size="13">templanza</text></g>
    <g transform="rotate(4 175 682)" opacity="0.76"><text x="175" y="682" font-size="15">amor</text></g>
    <g transform="rotate(-5 310 685)" opacity="0.70"><text x="310" y="685" font-size="14">gozo</text></g>
    <g transform="rotate(5 385 680)" opacity="0.71"><text x="385" y="680" font-size="13">fe</text></g>
    <g transform="rotate(-6 80 725)" opacity="0.80"><text x="80" y="725" font-size="16">paz</text></g>
    <g transform="rotate(3 215 722)" opacity="0.66"><text x="215" y="722" font-size="13">bienvenida</text></g>
    <g transform="rotate(-4 355 725)" opacity="0.76"><text x="355" y="725" font-size="14">hermandad</text></g>
    <g transform="rotate(5 50 765)" opacity="0.70"><text x="50" y="765" font-size="13">gozo</text></g>
    <g transform="rotate(-3 185 762)" opacity="0.73"><text x="185" y="762" font-size="15">fe</text></g>
    <g transform="rotate(6 320 765)" opacity="0.66"><text x="320" y="765" font-size="13">amor</text></g>
    <g transform="rotate(-5 385 760)" opacity="0.80"><text x="385" y="760" font-size="14">paz</text></g>
    <g transform="rotate(4 70 805)" opacity="0.71"><text x="70" y="805" font-size="15">alegría</text></g>
    <g transform="rotate(-6 205 802)" opacity="0.70"><text x="205" y="802" font-size="13">esperanza</text></g>
    <g transform="rotate(3 345 805)" opacity="0.76"><text x="345" y="805" font-size="14">gozo</text></g>
    <g transform="rotate(-5 45 845)" opacity="0.80"><text x="45" y="845" font-size="16">fe</text></g>
    <g transform="rotate(5 175 842)" opacity="0.66"><text x="175" y="842" font-size="13">templanza</text></g>
    <g transform="rotate(-4 305 845)" opacity="0.71"><text x="305" y="845" font-size="15">paz</text></g>
    <g transform="rotate(6 380 840)" opacity="0.70"><text x="380" y="840" font-size="13">amor</text></g>
  </g>

  <text font-family="'Segoe UI', Arial, Helvetica, sans-serif" fill="#3F6A55" font-size="11" font-style="italic" font-weight="700" text-anchor="middle" opacity="0.80">
    <tspan x="206" y="878">«Les dejo la paz; les doy mi paz» — Juan 14:27</tspan>
  </text>
</svg>